<?xml version="1.0" encoding="UTF-8" standalone="no"?>
<!-- Created with Inkscape (http://www.inkscape.org/) -->
<svg
   xmlns:dc="http://purl.org/dc/elements/1.1/"
   xmlns:cc="http://web.resource.org/cc/"
   xmlns:rdf="http://www.w3.org/1999/02/22-rdf-syntax-ns#"
   xmlns:svg="http://www.w3.org/2000/svg"
   xmlns="http://www.w3.org/2000/svg"
   xmlns:sodipodi="http://sodipodi.sourceforge.net/DTD/sodipodi-0.dtd"
   xmlns:inkscape="http://www.inkscape.org/namespaces/inkscape"
   width="32px"
   height="32px"
   viewBox="0 0 32 32"
   id="svg9601"
   sodipodi:version="0.32"
   inkscape:version="0.45.1"
   sodipodi:docbase="/home/eustaquio/gvSIG"
   sodipodi:docname="mapinfo66.svg"
   inkscape:output_extension="org.inkscape.output.svg.inkscape">
  <defs
     id="defs9603" />
  <sodipodi:namedview
     id="base"
     pagecolor="#ffffff"
     bordercolor="#666666"
     borderopacity="1.0"
     inkscape:pageopacity="0.0"
     inkscape:pageshadow="2"
     inkscape:zoom="11.197802"
     inkscape:cx="16"
     inkscape:cy="16"
     inkscape:current-layer="layer1"
     showgrid="true"
     inkscape:grid-bbox="true"
     inkscape:document-units="px"
     inkscape:window-width="1280"
     inkscape:window-height="951"
     inkscape:window-x="0"
     inkscape:window-y="0" />
  <metadata
     id="metadata9606">
    <rdf:RDF>
      <cc:Work
         rdf:about="">
        <dc:format>image/svg+xml</dc:format>
        <dc:type
           rdf:resource="http://purl.org/dc/dcmitype/StillImage" />
      </cc:Work>
    </rdf:RDF>
  </metadata>
  <g
     id="layer1"
     inkscape:label="Layer 1"
     inkscape:groupmode="layer">
    <g
       id="g10685"
       transform="matrix(1.434775,0,0,1.3761113,-1.6855303,-5.5695721)">
      <path
         id="path9615"
         d="M 15,7.4 C 13,4.4 13,4.4 13,4.4 L 13,4.4 L 13,4.4 C 10,7.4 10,7.4 10,7.4 L 10,7.4 C 10,22.4 10,22.4 10,22.4 L 10,22.4"
         style="opacity:1;fill:#808080;fill-opacity:1;stroke:#000000;stroke-width:0.56933945;stroke-miterlimit:4;stroke-dasharray:none;stroke-opacity:1" />
      <path
         id="path9611"
         d="M 10,22 L 5,22 L 5,22 L 5,27 L 5,27 L 5,27 C 20,27 20,27 20,27 L 20,27 L 20,27 C 20,22 20,22 20,22 L 20,22 L 20,22 C 15,22 15,22 15,22 L 15,22 L 15,22 C 15,7 15,7 15,7 L 15,7 L 15,7"
         style="opacity:1;fill:#808080;fill-opacity:1;stroke:#000000;stroke-width:0.56933945;stroke-miterlimit:4;stroke-dasharray:none;stroke-opacity:1" />
    </g>
  </g>
</svg>
