<?xml version="1.0" encoding="UTF-8" standalone="no"?>
<!-- Created with Inkscape (http://www.inkscape.org/) -->
<svg
   xmlns:dc="http://purl.org/dc/elements/1.1/"
   xmlns:cc="http://web.resource.org/cc/"
   xmlns:rdf="http://www.w3.org/1999/02/22-rdf-syntax-ns#"
   xmlns:svg="http://www.w3.org/2000/svg"
   xmlns="http://www.w3.org/2000/svg"
   xmlns:sodipodi="http://sodipodi.sourceforge.net/DTD/sodipodi-0.dtd"
   xmlns:inkscape="http://www.inkscape.org/namespaces/inkscape"
   width="32px"
   height="32px"
   viewBox="0 0 32 32"
   id="svg4449"
   sodipodi:version="0.32"
   inkscape:version="0.45.1"
   sodipodi:docbase="/home/eustaquio/gvSIG/images"
   sodipodi:docname="mapinfo52sel.svg"
   inkscape:output_extension="org.inkscape.output.svg.inkscape">
  <defs
     id="defs4451" />
  <sodipodi:namedview
     id="base"
     pagecolor="#ffffff"
     bordercolor="#666666"
     borderopacity="1.0"
     inkscape:pageopacity="0.0"
     inkscape:pageshadow="2"
     inkscape:zoom="11.197802"
     inkscape:cx="34.062171"
     inkscape:cy="3.7542234"
     inkscape:current-layer="g4442"
     showgrid="true"
     inkscape:grid-bbox="true"
     inkscape:document-units="px"
     inkscape:window-width="1280"
     inkscape:window-height="951"
     inkscape:window-x="0"
     inkscape:window-y="0" />
  <metadata
     id="metadata4454">
    <rdf:RDF>
      <cc:Work
         rdf:about="">
        <dc:format>image/svg+xml</dc:format>
        <dc:type
           rdf:resource="http://purl.org/dc/dcmitype/StillImage" />
      </cc:Work>
    </rdf:RDF>
  </metadata>
  <g
     id="layer1"
     inkscape:label="Layer 1"
     inkscape:groupmode="layer">
    <g
       id="g4442"
       transform="translate(-34.454946,-30.01786)">
      <g
         id="g4463"
         transform="matrix(0.4037303,0,0,1.0083747,29.679104,-0.2460345)"
         style="fill:#241f1c">
        <path
           style="fill:#ffff00;fill-rule:evenodd;stroke:#000000;stroke-width:0.14379124px;stroke-linecap:butt;stroke-linejoin:miter;stroke-opacity:1"
           d="M 44.073365,32.713332 C 44.073365,41.699919 44.073365,50.686507 44.073365,59.673096 C 48.872512,59.673096 53.67166,59.673096 58.470807,59.673096 C 58.290608,50.602899 58.110408,41.532697 57.930209,32.462501 C 53.311261,32.546109 48.692313,32.629723 44.073365,32.713332 z "
           id="path2180" />
        <path
           style="fill:#ffff00;fill-rule:evenodd;stroke:#000000;stroke-width:0.16169918px;stroke-linecap:butt;stroke-linejoin:miter;stroke-opacity:1"
           d="M 44.557168,32.627782 C 48.965764,32.662665 53.374359,32.697546 57.782955,32.732429 C 55.597786,31.853933 53.412618,30.975436 51.227448,30.09694 C 49.004021,30.940554 46.780595,31.784169 44.557168,32.627782 z "
           id="path2182" />
        <path
           style="fill:#ffff00;fill-rule:evenodd;stroke:#000000;stroke-width:0.14379124px;stroke-linecap:butt;stroke-linejoin:miter;stroke-opacity:1"
           d="M 58.027627,46.447968 C 68.812977,47.093577 79.598223,47.73918 90.383578,48.384783 C 79.598223,46.373883 68.812977,44.36299 58.027627,42.352091 C 58.027627,43.717387 58.027627,45.082677 58.027627,46.447968 z "
           id="path2184" />
        <path
           style="fill:#ffff00;fill-rule:evenodd;stroke:#000000;stroke-width:0.14379124px;stroke-linecap:butt;stroke-linejoin:miter;stroke-opacity:1"
           d="M 11.906905,48.384783 C 22.692255,47.73918 33.477505,47.093577 44.262855,46.447968 C 44.262855,45.082677 44.262855,43.717387 44.262855,42.352091 C 33.477505,44.36299 22.692255,46.373883 11.906905,48.384783 z "
           id="path2186" />
        <path
           style="fill:#ffff00;fill-rule:evenodd;stroke:#000000;stroke-width:0.14379124px;stroke-linecap:butt;stroke-linejoin:miter;stroke-opacity:1"
           d="M 34.997258,61.945873 C 45.42441,61.945873 55.851462,61.945873 66.278515,61.945873 C 66.278515,60.994396 66.278515,60.042926 66.278515,59.091455 C 55.851462,59.000438 45.42441,58.909419 34.997258,58.8184 C 34.997258,59.860889 34.997258,60.903378 34.997258,61.945873 z "
           id="path2188" />
      </g>
    </g>
  </g>
</svg>
